<mxfile host="app.diagrams.net" modified="2021-07-21T13:27:16.289Z" agent="5.0 (Windows)" etag="V0l8miSMJ0sb3CzZEe7S" version="14.8.0" type="github">
  <diagram id="GE_s1mTDHEq6owuLV0XP" name="Page-1">
    <mxGraphModel dx="1038" dy="557" grid="1" gridSize="10" guides="1" tooltips="1" connect="1" arrows="1" fold="1" page="1" pageScale="1" pageWidth="827" pageHeight="1169" math="1" shadow="0">
      <root>
        <mxCell id="0" />
        <mxCell id="1" parent="0" />
        <mxCell id="k3QAAfPR_TVCjGvHiEy7-3" value="ML" style="text;html=1;align=center;verticalAlign=middle;resizable=0;points=[];autosize=1;strokeColor=none;" parent="1" vertex="1">
          <mxGeometry x="10" y="50" width="30" height="20" as="geometry" />
        </mxCell>
        <mxCell id="k3QAAfPR_TVCjGvHiEy7-4" value="" style="curved=1;endArrow=classic;html=1;strokeColor=#FF0000;" parent="1" edge="1">
          <mxGeometry x="20" y="141.59" width="50" height="50" as="geometry">
            <mxPoint x="250" y="251.59" as="sourcePoint" />
            <mxPoint x="210" y="271.59000000000003" as="targetPoint" />
            <Array as="points">
              <mxPoint x="260" y="271.59000000000003" />
            </Array>
          </mxGeometry>
        </mxCell>
        <mxCell id="k3QAAfPR_TVCjGvHiEy7-5" value="&lt;font color=&quot;#ff0000&quot; style=&quot;font-size: 9px&quot;&gt;error&lt;/font&gt;" style="edgeLabel;html=1;align=center;verticalAlign=middle;resizable=0;points=[];" parent="k3QAAfPR_TVCjGvHiEy7-4" vertex="1" connectable="0">
          <mxGeometry x="-0.1274" y="-2" relative="1" as="geometry">
            <mxPoint x="-8" as="offset" />
          </mxGeometry>
        </mxCell>
        <mxCell id="k3QAAfPR_TVCjGvHiEy7-6" value="" style="curved=1;endArrow=classic;html=1;strokeColor=#FF0000;" parent="1" edge="1">
          <mxGeometry x="20" y="141.59" width="50" height="50" as="geometry">
            <mxPoint x="210" y="271.59000000000003" as="sourcePoint" />
            <mxPoint x="180" y="291.59000000000003" as="targetPoint" />
            <Array as="points">
              <mxPoint x="220" y="291.59000000000003" />
            </Array>
          </mxGeometry>
        </mxCell>
        <mxCell id="k3QAAfPR_TVCjGvHiEy7-7" value="&lt;font color=&quot;#ff0000&quot; style=&quot;font-size: 9px&quot;&gt;error&lt;/font&gt;" style="edgeLabel;html=1;align=center;verticalAlign=middle;resizable=0;points=[];" parent="k3QAAfPR_TVCjGvHiEy7-6" vertex="1" connectable="0">
          <mxGeometry x="-0.1274" y="-2" relative="1" as="geometry">
            <mxPoint x="-5" y="-1" as="offset" />
          </mxGeometry>
        </mxCell>
        <mxCell id="k3QAAfPR_TVCjGvHiEy7-8" value="INPUT" style="text;html=1;align=center;verticalAlign=middle;resizable=0;points=[];autosize=1;strokeColor=none;" parent="1" vertex="1">
          <mxGeometry x="20" y="216.59272727272727" width="50" height="20" as="geometry" />
        </mxCell>
        <mxCell id="k3QAAfPR_TVCjGvHiEy7-9" value="" style="ellipse;whiteSpace=wrap;html=1;aspect=fixed;" parent="1" vertex="1">
          <mxGeometry x="90" y="172.49909090909088" width="23.18181818181818" height="23.18181818181818" as="geometry" />
        </mxCell>
        <mxCell id="k3QAAfPR_TVCjGvHiEy7-10" value="" style="ellipse;whiteSpace=wrap;html=1;aspect=fixed;" parent="1" vertex="1">
          <mxGeometry x="90" y="214.99909090909088" width="23.18181818181818" height="23.18181818181818" as="geometry" />
        </mxCell>
        <mxCell id="k3QAAfPR_TVCjGvHiEy7-11" value="" style="ellipse;whiteSpace=wrap;html=1;aspect=fixed;" parent="1" vertex="1">
          <mxGeometry x="90" y="257.4990909090909" width="23.18181818181818" height="23.18181818181818" as="geometry" />
        </mxCell>
        <mxCell id="k3QAAfPR_TVCjGvHiEy7-12" value="" style="group" parent="1" vertex="1" connectable="0">
          <mxGeometry x="50" y="226.59" as="geometry" />
        </mxCell>
        <mxCell id="k3QAAfPR_TVCjGvHiEy7-13" value="" style="ellipse;whiteSpace=wrap;html=1;aspect=fixed;" parent="1" vertex="1">
          <mxGeometry x="150" y="191.81727272727275" width="23.18181818181818" height="23.18181818181818" as="geometry" />
        </mxCell>
        <mxCell id="k3QAAfPR_TVCjGvHiEy7-14" value="" style="ellipse;whiteSpace=wrap;html=1;aspect=fixed;" parent="1" vertex="1">
          <mxGeometry x="150" y="242.04454545454544" width="23.18181818181818" height="23.18181818181818" as="geometry" />
        </mxCell>
        <mxCell id="k3QAAfPR_TVCjGvHiEy7-15" value="" style="endArrow=none;html=1;exitX=0;exitY=0.5;exitDx=0;exitDy=0;entryX=1;entryY=0.5;entryDx=0;entryDy=0;" parent="1" source="k3QAAfPR_TVCjGvHiEy7-13" target="k3QAAfPR_TVCjGvHiEy7-9" edge="1">
          <mxGeometry x="20" y="141.59" width="50" height="50" as="geometry">
            <mxPoint x="60" y="234.48727272727277" as="sourcePoint" />
            <mxPoint x="100" y="191.81727272727275" as="targetPoint" />
          </mxGeometry>
        </mxCell>
        <mxCell id="k3QAAfPR_TVCjGvHiEy7-16" value="" style="endArrow=none;html=1;entryX=1;entryY=0.5;entryDx=0;entryDy=0;exitX=0;exitY=0.5;exitDx=0;exitDy=0;" parent="1" source="k3QAAfPR_TVCjGvHiEy7-13" target="k3QAAfPR_TVCjGvHiEy7-10" edge="1">
          <mxGeometry x="20" y="141.59" width="50" height="50" as="geometry">
            <mxPoint x="150" y="211.13545454545456" as="sourcePoint" />
            <mxPoint x="130" y="191.81727272727275" as="targetPoint" />
          </mxGeometry>
        </mxCell>
        <mxCell id="k3QAAfPR_TVCjGvHiEy7-17" value="" style="endArrow=none;html=1;exitX=0;exitY=0.5;exitDx=0;exitDy=0;entryX=1;entryY=0.5;entryDx=0;entryDy=0;" parent="1" source="k3QAAfPR_TVCjGvHiEy7-14" target="k3QAAfPR_TVCjGvHiEy7-9" edge="1">
          <mxGeometry x="20" y="141.59" width="50" height="50" as="geometry">
            <mxPoint x="164.39339828220784" y="202.9394441271606" as="sourcePoint" />
            <mxPoint x="130" y="191.81727272727275" as="targetPoint" />
          </mxGeometry>
        </mxCell>
        <mxCell id="k3QAAfPR_TVCjGvHiEy7-18" value="" style="ellipse;whiteSpace=wrap;html=1;aspect=fixed;" parent="1" vertex="1">
          <mxGeometry x="150" y="141.59" width="23.18181818181818" height="23.18181818181818" as="geometry" />
        </mxCell>
        <mxCell id="k3QAAfPR_TVCjGvHiEy7-19" value="" style="ellipse;whiteSpace=wrap;html=1;aspect=fixed;" parent="1" vertex="1">
          <mxGeometry x="150" y="288.4081818181818" width="23.18181818181818" height="23.18181818181818" as="geometry" />
        </mxCell>
        <mxCell id="k3QAAfPR_TVCjGvHiEy7-20" value="&lt;font style=&quot;font-size: 10px&quot;&gt;$$w_{4}$$&lt;/font&gt;" style="endArrow=none;html=1;exitX=0;exitY=0.5;exitDx=0;exitDy=0;entryX=1;entryY=0.5;entryDx=0;entryDy=0;" parent="1" source="k3QAAfPR_TVCjGvHiEy7-18" target="k3QAAfPR_TVCjGvHiEy7-9" edge="1">
          <mxGeometry width="50" height="50" as="geometry">
            <mxPoint x="160.0000000000042" y="211.13545454545456" as="sourcePoint" />
            <mxPoint x="130" y="191.81727272727275" as="targetPoint" />
            <mxPoint x="-2" y="1" as="offset" />
          </mxGeometry>
        </mxCell>
        <mxCell id="k3QAAfPR_TVCjGvHiEy7-21" value="" style="endArrow=none;html=1;exitX=0;exitY=0.5;exitDx=0;exitDy=0;entryX=1;entryY=0.5;entryDx=0;entryDy=0;" parent="1" source="k3QAAfPR_TVCjGvHiEy7-19" target="k3QAAfPR_TVCjGvHiEy7-9" edge="1">
          <mxGeometry x="20" y="141.59" width="50" height="50" as="geometry">
            <mxPoint x="160.0000000000042" y="160.90818181818182" as="sourcePoint" />
            <mxPoint x="130" y="191.81727272727275" as="targetPoint" />
          </mxGeometry>
        </mxCell>
        <mxCell id="k3QAAfPR_TVCjGvHiEy7-22" value="" style="endArrow=none;html=1;exitX=0;exitY=0.5;exitDx=0;exitDy=0;entryX=1;entryY=0.5;entryDx=0;entryDy=0;" parent="1" source="k3QAAfPR_TVCjGvHiEy7-18" target="k3QAAfPR_TVCjGvHiEy7-10" edge="1">
          <mxGeometry x="20" y="141.59" width="50" height="50" as="geometry">
            <mxPoint x="170.0000000000042" y="168.63545454545456" as="sourcePoint" />
            <mxPoint x="140" y="199.54454545454544" as="targetPoint" />
          </mxGeometry>
        </mxCell>
        <mxCell id="k3QAAfPR_TVCjGvHiEy7-23" value="" style="endArrow=none;html=1;exitX=0;exitY=0.5;exitDx=0;exitDy=0;entryX=1;entryY=0.5;entryDx=0;entryDy=0;" parent="1" source="k3QAAfPR_TVCjGvHiEy7-14" target="k3QAAfPR_TVCjGvHiEy7-10" edge="1">
          <mxGeometry x="20" y="141.59" width="50" height="50" as="geometry">
            <mxPoint x="180.0000000000042" y="176.36272727272726" as="sourcePoint" />
            <mxPoint x="150" y="207.2718181818182" as="targetPoint" />
          </mxGeometry>
        </mxCell>
        <mxCell id="k3QAAfPR_TVCjGvHiEy7-24" value="" style="endArrow=none;html=1;exitX=0;exitY=0.5;exitDx=0;exitDy=0;entryX=1;entryY=0.5;entryDx=0;entryDy=0;" parent="1" source="k3QAAfPR_TVCjGvHiEy7-19" target="k3QAAfPR_TVCjGvHiEy7-10" edge="1">
          <mxGeometry x="20" y="141.59" width="50" height="50" as="geometry">
            <mxPoint x="190.0000000000042" y="184.09" as="sourcePoint" />
            <mxPoint x="120" y="231.59" as="targetPoint" />
          </mxGeometry>
        </mxCell>
        <mxCell id="k3QAAfPR_TVCjGvHiEy7-25" value="" style="endArrow=none;html=1;exitX=0;exitY=0.5;exitDx=0;exitDy=0;entryX=1;entryY=0.5;entryDx=0;entryDy=0;" parent="1" source="k3QAAfPR_TVCjGvHiEy7-18" target="k3QAAfPR_TVCjGvHiEy7-11" edge="1">
          <mxGeometry x="20" y="141.59" width="50" height="50" as="geometry">
            <mxPoint x="200.0000000000042" y="191.81727272727275" as="sourcePoint" />
            <mxPoint x="170" y="222.72636363636363" as="targetPoint" />
          </mxGeometry>
        </mxCell>
        <mxCell id="k3QAAfPR_TVCjGvHiEy7-26" value="" style="endArrow=none;html=1;exitX=0;exitY=0.5;exitDx=0;exitDy=0;entryX=1;entryY=0.5;entryDx=0;entryDy=0;" parent="1" source="k3QAAfPR_TVCjGvHiEy7-13" target="k3QAAfPR_TVCjGvHiEy7-11" edge="1">
          <mxGeometry x="20" y="141.59" width="50" height="50" as="geometry">
            <mxPoint x="210.0000000000042" y="199.54454545454544" as="sourcePoint" />
            <mxPoint x="180" y="230.45363636363638" as="targetPoint" />
          </mxGeometry>
        </mxCell>
        <mxCell id="k3QAAfPR_TVCjGvHiEy7-27" value="" style="endArrow=none;html=1;exitX=0;exitY=0.5;exitDx=0;exitDy=0;entryX=1;entryY=0.5;entryDx=0;entryDy=0;" parent="1" source="k3QAAfPR_TVCjGvHiEy7-14" target="k3QAAfPR_TVCjGvHiEy7-11" edge="1">
          <mxGeometry x="20" y="141.59" width="50" height="50" as="geometry">
            <mxPoint x="220.0000000000042" y="207.2718181818182" as="sourcePoint" />
            <mxPoint x="120" y="265.22636363636366" as="targetPoint" />
          </mxGeometry>
        </mxCell>
        <mxCell id="k3QAAfPR_TVCjGvHiEy7-28" value="" style="endArrow=none;html=1;exitX=0;exitY=0.5;exitDx=0;exitDy=0;entryX=1;entryY=0.5;entryDx=0;entryDy=0;" parent="1" source="k3QAAfPR_TVCjGvHiEy7-19" target="k3QAAfPR_TVCjGvHiEy7-11" edge="1">
          <mxGeometry x="20" y="141.59" width="50" height="50" as="geometry">
            <mxPoint x="230.0000000000042" y="214.99909090909088" as="sourcePoint" />
            <mxPoint x="200" y="245.90818181818182" as="targetPoint" />
          </mxGeometry>
        </mxCell>
        <mxCell id="k3QAAfPR_TVCjGvHiEy7-29" value="" style="ellipse;whiteSpace=wrap;html=1;aspect=fixed;" parent="1" vertex="1">
          <mxGeometry x="210" y="191.81909090909093" width="23.18181818181818" height="23.18181818181818" as="geometry" />
        </mxCell>
        <mxCell id="k3QAAfPR_TVCjGvHiEy7-30" value="" style="ellipse;whiteSpace=wrap;html=1;aspect=fixed;" parent="1" vertex="1">
          <mxGeometry x="210" y="242.04909090909095" width="23.18181818181818" height="23.18181818181818" as="geometry" />
        </mxCell>
        <mxCell id="k3QAAfPR_TVCjGvHiEy7-31" value="" style="endArrow=none;html=1;exitX=1;exitY=0.5;exitDx=0;exitDy=0;entryX=0;entryY=0.5;entryDx=0;entryDy=0;" parent="1" source="k3QAAfPR_TVCjGvHiEy7-18" target="k3QAAfPR_TVCjGvHiEy7-29" edge="1">
          <mxGeometry x="20" y="141.59" width="50" height="50" as="geometry">
            <mxPoint x="160.0000000000042" y="160.90818181818182" as="sourcePoint" />
            <mxPoint x="130" y="191.81727272727275" as="targetPoint" />
          </mxGeometry>
        </mxCell>
        <mxCell id="k3QAAfPR_TVCjGvHiEy7-32" value="&lt;font style=&quot;font-size: 10px&quot;&gt;$$w_{x}$$&lt;/font&gt;" style="edgeLabel;html=1;align=center;verticalAlign=middle;resizable=0;points=[];" parent="k3QAAfPR_TVCjGvHiEy7-31" vertex="1" connectable="0">
          <mxGeometry relative="1" as="geometry">
            <mxPoint x="1" y="3" as="offset" />
          </mxGeometry>
        </mxCell>
        <mxCell id="k3QAAfPR_TVCjGvHiEy7-33" value="" style="endArrow=none;html=1;exitX=1;exitY=0.5;exitDx=0;exitDy=0;entryX=0;entryY=0.5;entryDx=0;entryDy=0;" parent="1" source="k3QAAfPR_TVCjGvHiEy7-18" target="k3QAAfPR_TVCjGvHiEy7-30" edge="1">
          <mxGeometry x="20" y="141.59" width="50" height="50" as="geometry">
            <mxPoint x="199.99999999999557" y="168.63545454545456" as="sourcePoint" />
            <mxPoint x="230.0000000000041" y="199.54454545454544" as="targetPoint" />
          </mxGeometry>
        </mxCell>
        <mxCell id="k3QAAfPR_TVCjGvHiEy7-34" value="" style="endArrow=none;html=1;exitX=1;exitY=0.5;exitDx=0;exitDy=0;entryX=0;entryY=0.5;entryDx=0;entryDy=0;" parent="1" source="k3QAAfPR_TVCjGvHiEy7-13" target="k3QAAfPR_TVCjGvHiEy7-29" edge="1">
          <mxGeometry x="20" y="141.59" width="50" height="50" as="geometry">
            <mxPoint x="209.99999999999557" y="176.36272727272726" as="sourcePoint" />
            <mxPoint x="240.0000000000041" y="207.2718181818182" as="targetPoint" />
          </mxGeometry>
        </mxCell>
        <mxCell id="k3QAAfPR_TVCjGvHiEy7-35" value="" style="endArrow=none;html=1;entryX=0;entryY=0.5;entryDx=0;entryDy=0;exitX=1;exitY=0.5;exitDx=0;exitDy=0;" parent="1" source="k3QAAfPR_TVCjGvHiEy7-13" target="k3QAAfPR_TVCjGvHiEy7-30" edge="1">
          <mxGeometry x="20" y="141.59" width="50" height="50" as="geometry">
            <mxPoint x="180" y="211.13545454545456" as="sourcePoint" />
            <mxPoint x="230.0000000000041" y="199.54454545454544" as="targetPoint" />
          </mxGeometry>
        </mxCell>
        <mxCell id="k3QAAfPR_TVCjGvHiEy7-36" value="" style="endArrow=none;html=1;exitX=1;exitY=0.5;exitDx=0;exitDy=0;entryX=0;entryY=0.5;entryDx=0;entryDy=0;" parent="1" source="k3QAAfPR_TVCjGvHiEy7-14" target="k3QAAfPR_TVCjGvHiEy7-29" edge="1">
          <mxGeometry x="20" y="141.59" width="50" height="50" as="geometry">
            <mxPoint x="229.99999999999557" y="242.04454545454544" as="sourcePoint" />
            <mxPoint x="260.0000000000041" y="222.72636363636363" as="targetPoint" />
          </mxGeometry>
        </mxCell>
        <mxCell id="k3QAAfPR_TVCjGvHiEy7-37" value="" style="endArrow=none;html=1;entryX=0;entryY=0.5;entryDx=0;entryDy=0;exitX=0.998;exitY=0.5;exitDx=0;exitDy=0;exitPerimeter=0;" parent="1" source="k3QAAfPR_TVCjGvHiEy7-8" target="k3QAAfPR_TVCjGvHiEy7-10" edge="1">
          <mxGeometry x="20" y="141.59" width="50" height="50" as="geometry">
            <mxPoint x="70" y="226.59" as="sourcePoint" />
            <mxPoint x="140" y="184.09" as="targetPoint" />
          </mxGeometry>
        </mxCell>
        <mxCell id="k3QAAfPR_TVCjGvHiEy7-38" value="&lt;font style=&quot;font-size: 10px&quot;&gt;$$w_{2}$$&lt;/font&gt;" style="edgeLabel;html=1;align=center;verticalAlign=middle;resizable=0;points=[];" parent="k3QAAfPR_TVCjGvHiEy7-37" vertex="1" connectable="0">
          <mxGeometry relative="1" as="geometry">
            <mxPoint as="offset" />
          </mxGeometry>
        </mxCell>
        <mxCell id="k3QAAfPR_TVCjGvHiEy7-39" value="OUTPUT" style="text;html=1;align=center;verticalAlign=middle;resizable=0;points=[];autosize=1;strokeColor=none;" parent="1" vertex="1">
          <mxGeometry x="260" y="216.59272727272727" width="60" height="20" as="geometry" />
        </mxCell>
        <mxCell id="k3QAAfPR_TVCjGvHiEy7-40" value="" style="endArrow=none;html=1;exitX=-0.002;exitY=0.531;exitDx=0;exitDy=0;exitPerimeter=0;entryX=1;entryY=0.5;entryDx=0;entryDy=0;" parent="1" source="k3QAAfPR_TVCjGvHiEy7-39" target="k3QAAfPR_TVCjGvHiEy7-29" edge="1">
          <mxGeometry x="20" y="141.59" width="50" height="50" as="geometry">
            <mxPoint x="80" y="234.4872727272727" as="sourcePoint" />
            <mxPoint x="100" y="191.81727272727275" as="targetPoint" />
          </mxGeometry>
        </mxCell>
        <mxCell id="k3QAAfPR_TVCjGvHiEy7-41" value="" style="endArrow=none;html=1;entryX=1;entryY=0.5;entryDx=0;entryDy=0;exitX=0;exitY=0.517;exitDx=0;exitDy=0;exitPerimeter=0;" parent="1" source="k3QAAfPR_TVCjGvHiEy7-39" target="k3QAAfPR_TVCjGvHiEy7-30" edge="1">
          <mxGeometry x="20" y="141.59" width="50" height="50" as="geometry">
            <mxPoint x="260" y="226.59" as="sourcePoint" />
            <mxPoint x="270" y="269.52272727272725" as="targetPoint" />
          </mxGeometry>
        </mxCell>
        <mxCell id="k3QAAfPR_TVCjGvHiEy7-42" value="" style="endArrow=none;html=1;exitX=1;exitY=0.511;exitDx=0;exitDy=0;exitPerimeter=0;entryX=0;entryY=0.5;entryDx=0;entryDy=0;" parent="1" source="k3QAAfPR_TVCjGvHiEy7-8" target="k3QAAfPR_TVCjGvHiEy7-9" edge="1">
          <mxGeometry x="20" y="141.59" width="50" height="50" as="geometry">
            <mxPoint x="350" y="350.22636363636366" as="sourcePoint" />
            <mxPoint x="400" y="311.59" as="targetPoint" />
          </mxGeometry>
        </mxCell>
        <mxCell id="k3QAAfPR_TVCjGvHiEy7-43" value="&lt;font style=&quot;font-size: 10px&quot;&gt;$$w_{1}$$&lt;/font&gt;" style="edgeLabel;html=1;align=center;verticalAlign=middle;resizable=0;points=[];" parent="k3QAAfPR_TVCjGvHiEy7-42" vertex="1" connectable="0">
          <mxGeometry relative="1" as="geometry">
            <mxPoint x="-4" y="-10" as="offset" />
          </mxGeometry>
        </mxCell>
        <mxCell id="k3QAAfPR_TVCjGvHiEy7-44" value="" style="curved=1;endArrow=classic;html=1;exitX=0.527;exitY=0.96;exitDx=0;exitDy=0;exitPerimeter=0;strokeColor=#FF0000;" parent="1" source="k3QAAfPR_TVCjGvHiEy7-39" edge="1">
          <mxGeometry x="40" y="441.59000000000003" width="50" height="50" as="geometry">
            <mxPoint x="250" y="315.22999999999996" as="sourcePoint" />
            <mxPoint x="250" y="251.59" as="targetPoint" />
            <Array as="points">
              <mxPoint x="280" y="251.59" />
            </Array>
          </mxGeometry>
        </mxCell>
        <mxCell id="k3QAAfPR_TVCjGvHiEy7-45" value="&lt;font color=&quot;#ff0000&quot; style=&quot;font-size: 9px&quot;&gt;error&lt;/font&gt;" style="edgeLabel;html=1;align=center;verticalAlign=middle;resizable=0;points=[];" parent="k3QAAfPR_TVCjGvHiEy7-44" vertex="1" connectable="0">
          <mxGeometry x="-0.1274" y="-2" relative="1" as="geometry">
            <mxPoint x="1" as="offset" />
          </mxGeometry>
        </mxCell>
        <mxCell id="k3QAAfPR_TVCjGvHiEy7-46" value="pre-defined network architecture" style="text;html=1;align=center;verticalAlign=middle;resizable=0;points=[];autosize=1;strokeColor=none;" parent="1" vertex="1">
          <mxGeometry x="66.59" y="50" width="190" height="20" as="geometry" />
        </mxCell>
        <mxCell id="k3QAAfPR_TVCjGvHiEy7-47" value="" style="ellipse;whiteSpace=wrap;html=1;aspect=fixed;" parent="1" vertex="1">
          <mxGeometry x="88.75" y="427.4990909090909" width="23.18181818181818" height="23.18181818181818" as="geometry" />
        </mxCell>
        <mxCell id="k3QAAfPR_TVCjGvHiEy7-48" value="" style="ellipse;whiteSpace=wrap;html=1;aspect=fixed;" parent="1" vertex="1">
          <mxGeometry x="88.75" y="469.9990909090909" width="23.18181818181818" height="23.18181818181818" as="geometry" />
        </mxCell>
        <mxCell id="k3QAAfPR_TVCjGvHiEy7-49" value="" style="ellipse;whiteSpace=wrap;html=1;aspect=fixed;" parent="1" vertex="1">
          <mxGeometry x="88.75" y="512.4990909090909" width="23.18181818181818" height="23.18181818181818" as="geometry" />
        </mxCell>
        <mxCell id="k3QAAfPR_TVCjGvHiEy7-50" value="" style="group" parent="1" vertex="1" connectable="0">
          <mxGeometry x="48.75" y="481.59000000000003" as="geometry" />
        </mxCell>
        <mxCell id="k3QAAfPR_TVCjGvHiEy7-51" value="" style="ellipse;whiteSpace=wrap;html=1;aspect=fixed;" parent="1" vertex="1">
          <mxGeometry x="148.75" y="446.8172727272728" width="23.18181818181818" height="23.18181818181818" as="geometry" />
        </mxCell>
        <mxCell id="k3QAAfPR_TVCjGvHiEy7-52" value="" style="ellipse;whiteSpace=wrap;html=1;aspect=fixed;" parent="1" vertex="1">
          <mxGeometry x="148.75" y="497.0445454545455" width="23.18181818181818" height="23.18181818181818" as="geometry" />
        </mxCell>
        <mxCell id="k3QAAfPR_TVCjGvHiEy7-53" value="" style="endArrow=none;html=1;exitX=0;exitY=0.5;exitDx=0;exitDy=0;entryX=1;entryY=0.5;entryDx=0;entryDy=0;" parent="1" source="k3QAAfPR_TVCjGvHiEy7-51" target="k3QAAfPR_TVCjGvHiEy7-47" edge="1">
          <mxGeometry x="18.75" y="396.59000000000003" width="50" height="50" as="geometry">
            <mxPoint x="58.75" y="489.48727272727285" as="sourcePoint" />
            <mxPoint x="98.75" y="446.8172727272728" as="targetPoint" />
          </mxGeometry>
        </mxCell>
        <mxCell id="k3QAAfPR_TVCjGvHiEy7-54" value="" style="endArrow=none;html=1;entryX=1;entryY=0.5;entryDx=0;entryDy=0;exitX=0;exitY=0.5;exitDx=0;exitDy=0;" parent="1" source="k3QAAfPR_TVCjGvHiEy7-51" target="k3QAAfPR_TVCjGvHiEy7-48" edge="1">
          <mxGeometry x="18.75" y="396.59000000000003" width="50" height="50" as="geometry">
            <mxPoint x="148.75" y="466.13545454545454" as="sourcePoint" />
            <mxPoint x="128.75" y="446.8172727272728" as="targetPoint" />
          </mxGeometry>
        </mxCell>
        <mxCell id="k3QAAfPR_TVCjGvHiEy7-55" value="" style="endArrow=none;html=1;exitX=0;exitY=0.5;exitDx=0;exitDy=0;entryX=1;entryY=0.5;entryDx=0;entryDy=0;" parent="1" source="k3QAAfPR_TVCjGvHiEy7-52" target="k3QAAfPR_TVCjGvHiEy7-47" edge="1">
          <mxGeometry x="18.75" y="396.59000000000003" width="50" height="50" as="geometry">
            <mxPoint x="163.14339828220784" y="457.93944412716064" as="sourcePoint" />
            <mxPoint x="128.75" y="446.8172727272728" as="targetPoint" />
          </mxGeometry>
        </mxCell>
        <mxCell id="k3QAAfPR_TVCjGvHiEy7-56" value="" style="ellipse;whiteSpace=wrap;html=1;aspect=fixed;" parent="1" vertex="1">
          <mxGeometry x="148.75" y="396.59000000000003" width="23.18181818181818" height="23.18181818181818" as="geometry" />
        </mxCell>
        <mxCell id="k3QAAfPR_TVCjGvHiEy7-57" value="" style="ellipse;whiteSpace=wrap;html=1;aspect=fixed;" parent="1" vertex="1">
          <mxGeometry x="148.75" y="543.4081818181818" width="23.18181818181818" height="23.18181818181818" as="geometry" />
        </mxCell>
        <mxCell id="k3QAAfPR_TVCjGvHiEy7-58" value="&lt;span style=&quot;color: rgb(0 , 0 , 204) ; font-size: 10px&quot;&gt;$$w_{4}$$&lt;/span&gt;" style="endArrow=none;html=1;exitX=0;exitY=0.5;exitDx=0;exitDy=0;entryX=1;entryY=0.5;entryDx=0;entryDy=0;" parent="1" source="k3QAAfPR_TVCjGvHiEy7-56" target="k3QAAfPR_TVCjGvHiEy7-47" edge="1">
          <mxGeometry x="18.75" y="396.59000000000003" width="50" height="50" as="geometry">
            <mxPoint x="158.7500000000042" y="466.13545454545454" as="sourcePoint" />
            <mxPoint x="128.75" y="446.8172727272728" as="targetPoint" />
          </mxGeometry>
        </mxCell>
        <mxCell id="k3QAAfPR_TVCjGvHiEy7-59" value="" style="endArrow=none;html=1;exitX=0;exitY=0.5;exitDx=0;exitDy=0;entryX=1;entryY=0.5;entryDx=0;entryDy=0;" parent="1" source="k3QAAfPR_TVCjGvHiEy7-57" target="k3QAAfPR_TVCjGvHiEy7-47" edge="1">
          <mxGeometry x="18.75" y="396.59000000000003" width="50" height="50" as="geometry">
            <mxPoint x="158.7500000000042" y="415.9081818181818" as="sourcePoint" />
            <mxPoint x="128.75" y="446.8172727272728" as="targetPoint" />
          </mxGeometry>
        </mxCell>
        <mxCell id="k3QAAfPR_TVCjGvHiEy7-60" value="" style="endArrow=none;html=1;exitX=0;exitY=0.5;exitDx=0;exitDy=0;entryX=1;entryY=0.5;entryDx=0;entryDy=0;" parent="1" source="k3QAAfPR_TVCjGvHiEy7-56" target="k3QAAfPR_TVCjGvHiEy7-48" edge="1">
          <mxGeometry x="18.75" y="396.59000000000003" width="50" height="50" as="geometry">
            <mxPoint x="168.7500000000042" y="423.63545454545454" as="sourcePoint" />
            <mxPoint x="138.75" y="454.5445454545455" as="targetPoint" />
          </mxGeometry>
        </mxCell>
        <mxCell id="k3QAAfPR_TVCjGvHiEy7-61" value="" style="endArrow=none;html=1;exitX=0;exitY=0.5;exitDx=0;exitDy=0;entryX=1;entryY=0.5;entryDx=0;entryDy=0;" parent="1" source="k3QAAfPR_TVCjGvHiEy7-52" target="k3QAAfPR_TVCjGvHiEy7-48" edge="1">
          <mxGeometry x="18.75" y="396.59000000000003" width="50" height="50" as="geometry">
            <mxPoint x="178.7500000000042" y="431.3627272727273" as="sourcePoint" />
            <mxPoint x="148.75" y="462.2718181818183" as="targetPoint" />
          </mxGeometry>
        </mxCell>
        <mxCell id="k3QAAfPR_TVCjGvHiEy7-62" value="" style="endArrow=none;html=1;exitX=0;exitY=0.5;exitDx=0;exitDy=0;entryX=1;entryY=0.5;entryDx=0;entryDy=0;" parent="1" source="k3QAAfPR_TVCjGvHiEy7-57" target="k3QAAfPR_TVCjGvHiEy7-48" edge="1">
          <mxGeometry x="18.75" y="396.59000000000003" width="50" height="50" as="geometry">
            <mxPoint x="188.7500000000042" y="439.09000000000003" as="sourcePoint" />
            <mxPoint x="118.75" y="486.59000000000003" as="targetPoint" />
          </mxGeometry>
        </mxCell>
        <mxCell id="k3QAAfPR_TVCjGvHiEy7-63" value="" style="endArrow=none;html=1;exitX=0;exitY=0.5;exitDx=0;exitDy=0;entryX=1;entryY=0.5;entryDx=0;entryDy=0;" parent="1" source="k3QAAfPR_TVCjGvHiEy7-56" target="k3QAAfPR_TVCjGvHiEy7-49" edge="1">
          <mxGeometry x="18.75" y="396.59000000000003" width="50" height="50" as="geometry">
            <mxPoint x="198.7500000000042" y="446.8172727272728" as="sourcePoint" />
            <mxPoint x="168.75" y="477.72636363636366" as="targetPoint" />
          </mxGeometry>
        </mxCell>
        <mxCell id="k3QAAfPR_TVCjGvHiEy7-64" value="" style="endArrow=none;html=1;exitX=0;exitY=0.5;exitDx=0;exitDy=0;entryX=1;entryY=0.5;entryDx=0;entryDy=0;" parent="1" source="k3QAAfPR_TVCjGvHiEy7-51" target="k3QAAfPR_TVCjGvHiEy7-49" edge="1">
          <mxGeometry x="18.75" y="396.59000000000003" width="50" height="50" as="geometry">
            <mxPoint x="208.7500000000042" y="454.5445454545455" as="sourcePoint" />
            <mxPoint x="178.75" y="485.4536363636364" as="targetPoint" />
          </mxGeometry>
        </mxCell>
        <mxCell id="k3QAAfPR_TVCjGvHiEy7-65" value="" style="endArrow=none;html=1;exitX=0;exitY=0.5;exitDx=0;exitDy=0;entryX=1;entryY=0.5;entryDx=0;entryDy=0;" parent="1" source="k3QAAfPR_TVCjGvHiEy7-52" target="k3QAAfPR_TVCjGvHiEy7-49" edge="1">
          <mxGeometry x="18.75" y="396.59000000000003" width="50" height="50" as="geometry">
            <mxPoint x="218.7500000000042" y="462.2718181818183" as="sourcePoint" />
            <mxPoint x="118.75" y="520.2263636363637" as="targetPoint" />
          </mxGeometry>
        </mxCell>
        <mxCell id="k3QAAfPR_TVCjGvHiEy7-66" value="" style="endArrow=none;html=1;exitX=0;exitY=0.5;exitDx=0;exitDy=0;entryX=1;entryY=0.5;entryDx=0;entryDy=0;" parent="1" source="k3QAAfPR_TVCjGvHiEy7-57" target="k3QAAfPR_TVCjGvHiEy7-49" edge="1">
          <mxGeometry x="18.75" y="396.59000000000003" width="50" height="50" as="geometry">
            <mxPoint x="228.7500000000042" y="469.9990909090909" as="sourcePoint" />
            <mxPoint x="198.75" y="500.9081818181818" as="targetPoint" />
          </mxGeometry>
        </mxCell>
        <mxCell id="k3QAAfPR_TVCjGvHiEy7-67" value="" style="ellipse;whiteSpace=wrap;html=1;aspect=fixed;" parent="1" vertex="1">
          <mxGeometry x="208.75" y="446.81909090909096" width="23.18181818181818" height="23.18181818181818" as="geometry" />
        </mxCell>
        <mxCell id="k3QAAfPR_TVCjGvHiEy7-68" value="" style="ellipse;whiteSpace=wrap;html=1;aspect=fixed;" parent="1" vertex="1">
          <mxGeometry x="208.75" y="497.049090909091" width="23.18181818181818" height="23.18181818181818" as="geometry" />
        </mxCell>
        <mxCell id="k3QAAfPR_TVCjGvHiEy7-69" value="" style="endArrow=none;html=1;exitX=1;exitY=0.5;exitDx=0;exitDy=0;entryX=0;entryY=0.5;entryDx=0;entryDy=0;" parent="1" source="k3QAAfPR_TVCjGvHiEy7-56" target="k3QAAfPR_TVCjGvHiEy7-67" edge="1">
          <mxGeometry x="18.75" y="396.59000000000003" width="50" height="50" as="geometry">
            <mxPoint x="158.7500000000042" y="415.9081818181818" as="sourcePoint" />
            <mxPoint x="128.75" y="446.8172727272728" as="targetPoint" />
          </mxGeometry>
        </mxCell>
        <mxCell id="k3QAAfPR_TVCjGvHiEy7-70" value="&lt;span style=&quot;color: rgb(0 , 0 , 204) ; font-size: 10px&quot;&gt;$$w_{x}$$&lt;/span&gt;" style="edgeLabel;html=1;align=center;verticalAlign=middle;resizable=0;points=[];" parent="k3QAAfPR_TVCjGvHiEy7-69" vertex="1" connectable="0">
          <mxGeometry relative="1" as="geometry">
            <mxPoint x="1" y="3" as="offset" />
          </mxGeometry>
        </mxCell>
        <mxCell id="k3QAAfPR_TVCjGvHiEy7-71" value="" style="endArrow=none;html=1;exitX=1;exitY=0.5;exitDx=0;exitDy=0;entryX=0;entryY=0.5;entryDx=0;entryDy=0;" parent="1" source="k3QAAfPR_TVCjGvHiEy7-56" target="k3QAAfPR_TVCjGvHiEy7-68" edge="1">
          <mxGeometry x="18.75" y="396.59000000000003" width="50" height="50" as="geometry">
            <mxPoint x="198.74999999999557" y="423.63545454545454" as="sourcePoint" />
            <mxPoint x="228.7500000000041" y="454.5445454545455" as="targetPoint" />
          </mxGeometry>
        </mxCell>
        <mxCell id="k3QAAfPR_TVCjGvHiEy7-72" value="" style="endArrow=none;html=1;exitX=1;exitY=0.5;exitDx=0;exitDy=0;entryX=0;entryY=0.5;entryDx=0;entryDy=0;" parent="1" source="k3QAAfPR_TVCjGvHiEy7-51" target="k3QAAfPR_TVCjGvHiEy7-67" edge="1">
          <mxGeometry x="18.75" y="396.59000000000003" width="50" height="50" as="geometry">
            <mxPoint x="208.74999999999557" y="431.3627272727273" as="sourcePoint" />
            <mxPoint x="238.7500000000041" y="462.2718181818183" as="targetPoint" />
          </mxGeometry>
        </mxCell>
        <mxCell id="k3QAAfPR_TVCjGvHiEy7-73" value="" style="endArrow=none;html=1;entryX=0;entryY=0.5;entryDx=0;entryDy=0;exitX=1;exitY=0.5;exitDx=0;exitDy=0;" parent="1" source="k3QAAfPR_TVCjGvHiEy7-51" target="k3QAAfPR_TVCjGvHiEy7-68" edge="1">
          <mxGeometry x="18.75" y="396.59000000000003" width="50" height="50" as="geometry">
            <mxPoint x="178.75" y="466.13545454545454" as="sourcePoint" />
            <mxPoint x="228.7500000000041" y="454.5445454545455" as="targetPoint" />
          </mxGeometry>
        </mxCell>
        <mxCell id="k3QAAfPR_TVCjGvHiEy7-74" value="" style="endArrow=none;html=1;exitX=1;exitY=0.5;exitDx=0;exitDy=0;entryX=0;entryY=0.5;entryDx=0;entryDy=0;" parent="1" source="k3QAAfPR_TVCjGvHiEy7-52" target="k3QAAfPR_TVCjGvHiEy7-67" edge="1">
          <mxGeometry x="18.75" y="396.59000000000003" width="50" height="50" as="geometry">
            <mxPoint x="228.74999999999557" y="497.0445454545455" as="sourcePoint" />
            <mxPoint x="258.7500000000041" y="477.72636363636366" as="targetPoint" />
          </mxGeometry>
        </mxCell>
        <mxCell id="k3QAAfPR_TVCjGvHiEy7-75" value="" style="endArrow=none;html=1;exitX=1;exitY=0.5;exitDx=0;exitDy=0;entryX=0;entryY=0.5;entryDx=0;entryDy=0;" parent="1" source="k3QAAfPR_TVCjGvHiEy7-57" target="k3QAAfPR_TVCjGvHiEy7-67" edge="1">
          <mxGeometry x="18.75" y="396.59000000000003" width="50" height="50" as="geometry">
            <mxPoint x="238.74999999999557" y="504.7718181818183" as="sourcePoint" />
            <mxPoint x="268.7500000000041" y="485.4536363636364" as="targetPoint" />
          </mxGeometry>
        </mxCell>
        <mxCell id="k3QAAfPR_TVCjGvHiEy7-76" value="&lt;span style=&quot;color: rgb(0 , 0 , 204) ; font-size: 10px&quot;&gt;$$w_{y}$$&lt;/span&gt;" style="edgeLabel;html=1;align=center;verticalAlign=middle;resizable=0;points=[];" parent="k3QAAfPR_TVCjGvHiEy7-75" vertex="1" connectable="0">
          <mxGeometry relative="1" as="geometry">
            <mxPoint x="-6" y="17" as="offset" />
          </mxGeometry>
        </mxCell>
        <mxCell id="k3QAAfPR_TVCjGvHiEy7-77" value="" style="endArrow=none;html=1;exitX=1;exitY=0.5;exitDx=0;exitDy=0;entryX=0;entryY=0.5;entryDx=0;entryDy=0;" parent="1" source="k3QAAfPR_TVCjGvHiEy7-57" target="k3QAAfPR_TVCjGvHiEy7-68" edge="1">
          <mxGeometry x="18.75" y="396.59000000000003" width="50" height="50" as="geometry">
            <mxPoint x="198.74999999999557" y="570.4536363636364" as="sourcePoint" />
            <mxPoint x="228.7500000000041" y="454.5445454545455" as="targetPoint" />
          </mxGeometry>
        </mxCell>
        <mxCell id="k3QAAfPR_TVCjGvHiEy7-78" value="" style="endArrow=none;html=1;entryX=0;entryY=0.5;entryDx=0;entryDy=0;exitX=1;exitY=0.472;exitDx=0;exitDy=0;exitPerimeter=0;" parent="1" target="k3QAAfPR_TVCjGvHiEy7-49" edge="1">
          <mxGeometry x="18.75" y="396.59000000000003" width="50" height="50" as="geometry">
            <mxPoint x="68.75" y="481.03272727272736" as="sourcePoint" />
            <mxPoint x="138.75" y="489.3172727272728" as="targetPoint" />
          </mxGeometry>
        </mxCell>
        <mxCell id="k3QAAfPR_TVCjGvHiEy7-79" value="&lt;span style=&quot;color: rgb(0 , 0 , 204) ; font-size: 10px&quot;&gt;$$w_{3}$$&lt;/span&gt;" style="edgeLabel;html=1;align=center;verticalAlign=middle;resizable=0;points=[];" parent="k3QAAfPR_TVCjGvHiEy7-78" vertex="1" connectable="0">
          <mxGeometry relative="1" as="geometry">
            <mxPoint y="6" as="offset" />
          </mxGeometry>
        </mxCell>
        <mxCell id="k3QAAfPR_TVCjGvHiEy7-80" value="" style="endArrow=none;html=1;entryX=0;entryY=0.5;entryDx=0;entryDy=0;exitX=0.998;exitY=0.5;exitDx=0;exitDy=0;exitPerimeter=0;" parent="1" target="k3QAAfPR_TVCjGvHiEy7-48" edge="1">
          <mxGeometry x="18.75" y="396.59000000000003" width="50" height="50" as="geometry">
            <mxPoint x="68.65000000000009" y="481.5927272727273" as="sourcePoint" />
            <mxPoint x="138.75" y="439.09000000000003" as="targetPoint" />
          </mxGeometry>
        </mxCell>
        <mxCell id="k3QAAfPR_TVCjGvHiEy7-81" value="&lt;span style=&quot;color: rgb(0 , 0 , 204) ; font-size: 10px&quot;&gt;$$w_{2}$$&lt;/span&gt;" style="edgeLabel;html=1;align=center;verticalAlign=middle;resizable=0;points=[];" parent="k3QAAfPR_TVCjGvHiEy7-80" vertex="1" connectable="0">
          <mxGeometry relative="1" as="geometry">
            <mxPoint as="offset" />
          </mxGeometry>
        </mxCell>
        <mxCell id="k3QAAfPR_TVCjGvHiEy7-82" value="" style="endArrow=none;html=1;exitX=-0.002;exitY=0.531;exitDx=0;exitDy=0;exitPerimeter=0;entryX=1;entryY=0.5;entryDx=0;entryDy=0;" parent="1" target="k3QAAfPR_TVCjGvHiEy7-67" edge="1">
          <mxGeometry x="18.75" y="396.59000000000003" width="50" height="50" as="geometry">
            <mxPoint x="258.6299999999999" y="482.2127272727272" as="sourcePoint" />
            <mxPoint x="98.75" y="446.8172727272728" as="targetPoint" />
          </mxGeometry>
        </mxCell>
        <mxCell id="k3QAAfPR_TVCjGvHiEy7-83" value="" style="endArrow=none;html=1;entryX=1;entryY=0.5;entryDx=0;entryDy=0;exitX=0;exitY=0.517;exitDx=0;exitDy=0;exitPerimeter=0;" parent="1" target="k3QAAfPR_TVCjGvHiEy7-68" edge="1">
          <mxGeometry x="18.75" y="396.59000000000003" width="50" height="50" as="geometry">
            <mxPoint x="258.75" y="481.9327272727272" as="sourcePoint" />
            <mxPoint x="268.75" y="524.5227272727274" as="targetPoint" />
          </mxGeometry>
        </mxCell>
        <mxCell id="k3QAAfPR_TVCjGvHiEy7-84" value="" style="endArrow=none;html=1;exitX=1;exitY=0.511;exitDx=0;exitDy=0;exitPerimeter=0;entryX=0;entryY=0.5;entryDx=0;entryDy=0;" parent="1" target="k3QAAfPR_TVCjGvHiEy7-47" edge="1">
          <mxGeometry x="18.75" y="396.59000000000003" width="50" height="50" as="geometry">
            <mxPoint x="68.75" y="481.81272727272733" as="sourcePoint" />
            <mxPoint x="398.75" y="566.59" as="targetPoint" />
          </mxGeometry>
        </mxCell>
        <mxCell id="k3QAAfPR_TVCjGvHiEy7-85" value="&lt;font style=&quot;font-size: 10px&quot; color=&quot;#0000cc&quot;&gt;$$w_{1}$$&lt;/font&gt;" style="edgeLabel;html=1;align=center;verticalAlign=middle;resizable=0;points=[];" parent="k3QAAfPR_TVCjGvHiEy7-84" vertex="1" connectable="0">
          <mxGeometry relative="1" as="geometry">
            <mxPoint y="-2" as="offset" />
          </mxGeometry>
        </mxCell>
        <mxCell id="k3QAAfPR_TVCjGvHiEy7-86" value="OUTPUT" style="text;html=1;align=center;verticalAlign=middle;resizable=0;points=[];autosize=1;strokeColor=none;" parent="1" vertex="1">
          <mxGeometry x="258.75" y="471.5927272727273" width="60" height="20" as="geometry" />
        </mxCell>
        <mxCell id="k3QAAfPR_TVCjGvHiEy7-87" value="INPUT" style="text;html=1;align=center;verticalAlign=middle;resizable=0;points=[];autosize=1;strokeColor=none;" parent="1" vertex="1">
          <mxGeometry x="26.25" y="500.0027272727274" width="50" height="20" as="geometry" />
        </mxCell>
        <mxCell id="k3QAAfPR_TVCjGvHiEy7-88" value="" style="shape=flexArrow;endArrow=classic;html=1;" parent="1" edge="1">
          <mxGeometry width="50" height="50" relative="1" as="geometry">
            <mxPoint x="159.92" y="331.59" as="sourcePoint" />
            <mxPoint x="159.92" y="371.59000000000003" as="targetPoint" />
          </mxGeometry>
        </mxCell>
        <mxCell id="k3QAAfPR_TVCjGvHiEy7-89" value="synaptic weight update" style="edgeLabel;html=1;align=center;verticalAlign=middle;resizable=0;points=[];" parent="k3QAAfPR_TVCjGvHiEy7-88" vertex="1" connectable="0">
          <mxGeometry x="-0.3845" y="-6" relative="1" as="geometry">
            <mxPoint x="-64" y="-2" as="offset" />
          </mxGeometry>
        </mxCell>
        <mxCell id="k3QAAfPR_TVCjGvHiEy7-90" value="same architecture with updated weights" style="text;html=1;align=center;verticalAlign=middle;resizable=0;points=[];autosize=1;strokeColor=none;" parent="1" vertex="1">
          <mxGeometry x="45.34" y="590" width="230" height="20" as="geometry" />
        </mxCell>
        <mxCell id="k3QAAfPR_TVCjGvHiEy7-91" value="NG" style="text;html=1;align=center;verticalAlign=middle;resizable=0;points=[];autosize=1;strokeColor=none;" parent="1" vertex="1">
          <mxGeometry x="450" y="50" width="30" height="20" as="geometry" />
        </mxCell>
        <mxCell id="k3QAAfPR_TVCjGvHiEy7-92" value="no defined architecture" style="text;html=1;align=center;verticalAlign=middle;resizable=0;points=[];autosize=1;strokeColor=none;" parent="1" vertex="1">
          <mxGeometry x="545" y="50" width="140" height="20" as="geometry" />
        </mxCell>
        <mxCell id="k3QAAfPR_TVCjGvHiEy7-93" value="INPUT" style="text;html=1;align=center;verticalAlign=middle;resizable=0;points=[];autosize=1;strokeColor=none;" parent="1" vertex="1">
          <mxGeometry x="459.09" y="130.00272727272727" width="50" height="20" as="geometry" />
        </mxCell>
        <mxCell id="k3QAAfPR_TVCjGvHiEy7-94" value="OUTPUT" style="text;html=1;align=center;verticalAlign=middle;resizable=0;points=[];autosize=1;strokeColor=none;" parent="1" vertex="1">
          <mxGeometry x="704.09" y="130.00272727272727" width="60" height="20" as="geometry" />
        </mxCell>
        <mxCell id="k3QAAfPR_TVCjGvHiEy7-95" value="" style="curved=1;endArrow=classic;html=1;exitX=0.527;exitY=0.96;exitDx=0;exitDy=0;exitPerimeter=0;strokeColor=#FF0000;" parent="1" edge="1">
          <mxGeometry x="476.59" y="355.8" width="50" height="50" as="geometry">
            <mxPoint x="728.2099999999999" y="150.00272727272733" as="sourcePoint" />
            <mxPoint x="656.59" y="166" as="targetPoint" />
            <Array as="points">
              <mxPoint x="716.59" y="165.8" />
            </Array>
          </mxGeometry>
        </mxCell>
        <mxCell id="k3QAAfPR_TVCjGvHiEy7-96" value="&lt;font color=&quot;#ff0000&quot; style=&quot;font-size: 9px&quot;&gt;error&lt;/font&gt;" style="edgeLabel;html=1;align=center;verticalAlign=middle;resizable=0;points=[];" parent="k3QAAfPR_TVCjGvHiEy7-95" vertex="1" connectable="0">
          <mxGeometry x="-0.1274" y="-2" relative="1" as="geometry">
            <mxPoint x="1" as="offset" />
          </mxGeometry>
        </mxCell>
        <mxCell id="k3QAAfPR_TVCjGvHiEy7-97" value="INPUT" style="text;html=1;align=center;verticalAlign=middle;resizable=0;points=[];autosize=1;strokeColor=none;" parent="1" vertex="1">
          <mxGeometry x="459.09" y="230.00272727272727" width="50" height="20" as="geometry" />
        </mxCell>
        <mxCell id="k3QAAfPR_TVCjGvHiEy7-98" value="OUTPUT" style="text;html=1;align=center;verticalAlign=middle;resizable=0;points=[];autosize=1;strokeColor=none;" parent="1" vertex="1">
          <mxGeometry x="720" y="231.59272727272725" width="60" height="20" as="geometry" />
        </mxCell>
        <mxCell id="k3QAAfPR_TVCjGvHiEy7-99" value="" style="shape=flexArrow;endArrow=classic;html=1;" parent="1" edge="1">
          <mxGeometry width="50" height="50" relative="1" as="geometry">
            <mxPoint x="610.1599999999997" y="166.82000000000025" as="sourcePoint" />
            <mxPoint x="610.1599999999997" y="206.82000000000005" as="targetPoint" />
          </mxGeometry>
        </mxCell>
        <mxCell id="k3QAAfPR_TVCjGvHiEy7-100" value="neurogenesis" style="edgeLabel;html=1;align=center;verticalAlign=middle;resizable=0;points=[];" parent="k3QAAfPR_TVCjGvHiEy7-99" vertex="1" connectable="0">
          <mxGeometry x="-0.3845" y="-6" relative="1" as="geometry">
            <mxPoint x="-44" as="offset" />
          </mxGeometry>
        </mxCell>
        <mxCell id="k3QAAfPR_TVCjGvHiEy7-101" value="INPUT2" style="text;html=1;align=center;verticalAlign=middle;resizable=0;points=[];autosize=1;strokeColor=none;" parent="1" vertex="1">
          <mxGeometry x="457.5" y="349.91272727272724" width="60" height="20" as="geometry" />
        </mxCell>
        <mxCell id="k3QAAfPR_TVCjGvHiEy7-102" value="OUTPUT2" style="text;html=1;align=center;verticalAlign=middle;resizable=0;points=[];autosize=1;strokeColor=none;" parent="1" vertex="1">
          <mxGeometry x="702.5" y="349.91272727272724" width="70" height="20" as="geometry" />
        </mxCell>
        <mxCell id="k3QAAfPR_TVCjGvHiEy7-103" value="" style="curved=1;endArrow=classic;html=1;exitX=0.527;exitY=0.96;exitDx=0;exitDy=0;exitPerimeter=0;strokeColor=#FF0000;" parent="1" edge="1">
          <mxGeometry x="480" y="575.7099999999999" width="50" height="50" as="geometry">
            <mxPoint x="731.6199999999999" y="369.91272727272724" as="sourcePoint" />
            <mxPoint x="660" y="385.90999999999985" as="targetPoint" />
            <Array as="points">
              <mxPoint x="720" y="385.71000000000004" />
            </Array>
          </mxGeometry>
        </mxCell>
        <mxCell id="k3QAAfPR_TVCjGvHiEy7-104" value="&lt;font color=&quot;#ff0000&quot; style=&quot;font-size: 9px&quot;&gt;error2&lt;/font&gt;" style="edgeLabel;html=1;align=center;verticalAlign=middle;resizable=0;points=[];" parent="k3QAAfPR_TVCjGvHiEy7-103" vertex="1" connectable="0">
          <mxGeometry x="-0.1274" y="-2" relative="1" as="geometry">
            <mxPoint x="1" as="offset" />
          </mxGeometry>
        </mxCell>
        <mxCell id="k3QAAfPR_TVCjGvHiEy7-105" value="" style="shape=flexArrow;endArrow=classic;html=1;" parent="1" edge="1">
          <mxGeometry width="50" height="50" relative="1" as="geometry">
            <mxPoint x="613.5699999999997" y="409.09000000000015" as="sourcePoint" />
            <mxPoint x="613.5699999999997" y="449.09000000000003" as="targetPoint" />
          </mxGeometry>
        </mxCell>
        <mxCell id="k3QAAfPR_TVCjGvHiEy7-106" value="neurogenesis" style="edgeLabel;html=1;align=center;verticalAlign=middle;resizable=0;points=[];" parent="k3QAAfPR_TVCjGvHiEy7-105" vertex="1" connectable="0">
          <mxGeometry x="-0.3845" y="-6" relative="1" as="geometry">
            <mxPoint x="-39" y="-1" as="offset" />
          </mxGeometry>
        </mxCell>
        <mxCell id="k3QAAfPR_TVCjGvHiEy7-107" value="" style="group" parent="1" vertex="1" connectable="0">
          <mxGeometry x="513" y="229.99909090909085" width="110.18181818181813" height="23.181818181818187" as="geometry" />
        </mxCell>
        <mxCell id="k3QAAfPR_TVCjGvHiEy7-108" value="" style="ellipse;whiteSpace=wrap;html=1;aspect=fixed;strokeColor=#0000CC;" parent="k3QAAfPR_TVCjGvHiEy7-107" vertex="1">
          <mxGeometry x="87" width="23.18181818181818" height="23.18181818181818" as="geometry" />
        </mxCell>
        <mxCell id="k3QAAfPR_TVCjGvHiEy7-109" value="" style="endArrow=none;html=1;strokeColor=#0000CC;entryX=0;entryY=0.5;entryDx=0;entryDy=0;" parent="k3QAAfPR_TVCjGvHiEy7-107" target="k3QAAfPR_TVCjGvHiEy7-108" edge="1">
          <mxGeometry width="50" height="50" relative="1" as="geometry">
            <mxPoint y="11.180909090909154" as="sourcePoint" />
            <mxPoint x="7" y="-1.8190909090908463" as="targetPoint" />
          </mxGeometry>
        </mxCell>
        <mxCell id="k3QAAfPR_TVCjGvHiEy7-112" value="" style="group" parent="1" vertex="1" connectable="0">
          <mxGeometry x="517.5" y="346.7290909090908" width="110.18181818181813" height="23.181818181818187" as="geometry" />
        </mxCell>
        <mxCell id="k3QAAfPR_TVCjGvHiEy7-113" value="" style="ellipse;whiteSpace=wrap;html=1;aspect=fixed;strokeColor=#000000;" parent="k3QAAfPR_TVCjGvHiEy7-112" vertex="1">
          <mxGeometry x="87" width="23.18181818181818" height="23.18181818181818" as="geometry" />
        </mxCell>
        <mxCell id="k3QAAfPR_TVCjGvHiEy7-114" value="" style="endArrow=none;html=1;strokeColor=#000000;entryX=0;entryY=0.5;entryDx=0;entryDy=0;" parent="k3QAAfPR_TVCjGvHiEy7-112" target="k3QAAfPR_TVCjGvHiEy7-113" edge="1">
          <mxGeometry width="50" height="50" relative="1" as="geometry">
            <mxPoint y="11.180909090909154" as="sourcePoint" />
            <mxPoint x="7" y="-1.8190909090908463" as="targetPoint" />
          </mxGeometry>
        </mxCell>
        <mxCell id="k3QAAfPR_TVCjGvHiEy7-115" value="" style="endArrow=none;html=1;strokeColor=#000000;entryX=0.003;entryY=0.442;entryDx=0;entryDy=0;exitX=1;exitY=0.5;exitDx=0;exitDy=0;entryPerimeter=0;" parent="1" source="k3QAAfPR_TVCjGvHiEy7-113" target="k3QAAfPR_TVCjGvHiEy7-102" edge="1">
          <mxGeometry width="50" height="50" relative="1" as="geometry">
            <mxPoint x="527.5" y="367.90999999999997" as="sourcePoint" />
            <mxPoint x="614.4999999999993" y="368.31999999999994" as="targetPoint" />
          </mxGeometry>
        </mxCell>
        <mxCell id="k3QAAfPR_TVCjGvHiEy7-116" value="w&lt;sub&gt;1&lt;/sub&gt;" style="edgeLabel;html=1;align=center;verticalAlign=middle;resizable=0;points=[];" parent="k3QAAfPR_TVCjGvHiEy7-115" vertex="1" connectable="0">
          <mxGeometry x="-0.0907" y="4" relative="1" as="geometry">
            <mxPoint x="2" y="4" as="offset" />
          </mxGeometry>
        </mxCell>
        <mxCell id="k3QAAfPR_TVCjGvHiEy7-117" value="INPUT2" style="text;html=1;align=center;verticalAlign=middle;resizable=0;points=[];autosize=1;strokeColor=none;" parent="1" vertex="1">
          <mxGeometry x="457.5" y="479.77272727272725" width="60" height="20" as="geometry" />
        </mxCell>
        <mxCell id="k3QAAfPR_TVCjGvHiEy7-118" value="" style="group" parent="1" vertex="1" connectable="0">
          <mxGeometry x="516.41" y="479.7690909090909" width="110.18181818181813" height="23.181818181818187" as="geometry" />
        </mxCell>
        <mxCell id="k3QAAfPR_TVCjGvHiEy7-119" value="" style="ellipse;whiteSpace=wrap;html=1;aspect=fixed;strokeColor=#000000;" parent="k3QAAfPR_TVCjGvHiEy7-118" vertex="1">
          <mxGeometry x="87" width="23.18181818181818" height="23.18181818181818" as="geometry" />
        </mxCell>
        <mxCell id="k3QAAfPR_TVCjGvHiEy7-120" value="" style="endArrow=none;html=1;strokeColor=#000000;entryX=0;entryY=0.5;entryDx=0;entryDy=0;" parent="k3QAAfPR_TVCjGvHiEy7-118" target="k3QAAfPR_TVCjGvHiEy7-119" edge="1">
          <mxGeometry width="50" height="50" relative="1" as="geometry">
            <mxPoint y="11.180909090909154" as="sourcePoint" />
            <mxPoint x="7" y="-1.8190909090908463" as="targetPoint" />
          </mxGeometry>
        </mxCell>
        <mxCell id="k3QAAfPR_TVCjGvHiEy7-121" value="" style="endArrow=none;html=1;strokeColor=#000000;exitX=1;exitY=0.5;exitDx=0;exitDy=0;" parent="1" source="k3QAAfPR_TVCjGvHiEy7-119" edge="1">
          <mxGeometry width="50" height="50" relative="1" as="geometry">
            <mxPoint x="537.5" y="377.77" as="sourcePoint" />
            <mxPoint x="713.41" y="491.77" as="targetPoint" />
          </mxGeometry>
        </mxCell>
        <mxCell id="k3QAAfPR_TVCjGvHiEy7-122" value="w&lt;sub&gt;1&lt;/sub&gt;" style="edgeLabel;html=1;align=center;verticalAlign=middle;resizable=0;points=[];" parent="k3QAAfPR_TVCjGvHiEy7-121" vertex="1" connectable="0">
          <mxGeometry x="-0.0907" y="4" relative="1" as="geometry">
            <mxPoint x="2" y="4" as="offset" />
          </mxGeometry>
        </mxCell>
        <mxCell id="k3QAAfPR_TVCjGvHiEy7-123" value="OUTPUT2" style="text;html=1;align=center;verticalAlign=middle;resizable=0;points=[];autosize=1;strokeColor=none;" parent="1" vertex="1">
          <mxGeometry x="713.41" y="479.77272727272725" width="70" height="20" as="geometry" />
        </mxCell>
        <mxCell id="k3QAAfPR_TVCjGvHiEy7-124" value="" style="ellipse;whiteSpace=wrap;html=1;aspect=fixed;strokeColor=#0000CC;" parent="1" vertex="1">
          <mxGeometry x="603.41" y="531.8190909090908" width="23.18181818181818" height="23.18181818181818" as="geometry" />
        </mxCell>
        <mxCell id="k3QAAfPR_TVCjGvHiEy7-125" value="" style="endArrow=none;html=1;strokeColor=#0000CC;entryX=0;entryY=0.5;entryDx=0;entryDy=0;exitX=0.987;exitY=0.567;exitDx=0;exitDy=0;exitPerimeter=0;" parent="1" source="k3QAAfPR_TVCjGvHiEy7-117" target="k3QAAfPR_TVCjGvHiEy7-124" edge="1">
          <mxGeometry width="50" height="50" relative="1" as="geometry">
            <mxPoint x="526.41" y="250.95000000000005" as="sourcePoint" />
            <mxPoint x="613.4099999999745" y="251.3599999999999" as="targetPoint" />
          </mxGeometry>
        </mxCell>
        <mxCell id="k3QAAfPR_TVCjGvHiEy7-126" value="" style="endArrow=none;html=1;strokeColor=#0000CC;entryX=-0.009;entryY=0.625;entryDx=0;entryDy=0;exitX=1;exitY=0.5;exitDx=0;exitDy=0;entryPerimeter=0;" parent="1" source="k3QAAfPR_TVCjGvHiEy7-124" target="k3QAAfPR_TVCjGvHiEy7-123" edge="1">
          <mxGeometry width="50" height="50" relative="1" as="geometry">
            <mxPoint x="526.72" y="501.1127272727273" as="sourcePoint" />
            <mxPoint x="613.4099999999955" y="553.4099999999999" as="targetPoint" />
          </mxGeometry>
        </mxCell>
        <mxCell id="k3QAAfPR_TVCjGvHiEy7-127" value="&lt;font color=&quot;#0000cc&quot;&gt;w&lt;sub&gt;2 &lt;/sub&gt;= error2&lt;/font&gt;" style="edgeLabel;html=1;align=center;verticalAlign=middle;resizable=0;points=[];" parent="k3QAAfPR_TVCjGvHiEy7-126" vertex="1" connectable="0">
          <mxGeometry x="-0.0273" y="1" relative="1" as="geometry">
            <mxPoint x="-5" y="2" as="offset" />
          </mxGeometry>
        </mxCell>
        <mxCell id="k3QAAfPR_TVCjGvHiEy7-128" value="" style="endArrow=none;html=1;strokeColor=#0000CC;exitX=0.5;exitY=1;exitDx=0;exitDy=0;entryX=0.5;entryY=0;entryDx=0;entryDy=0;" parent="1" source="k3QAAfPR_TVCjGvHiEy7-119" target="k3QAAfPR_TVCjGvHiEy7-124" edge="1">
          <mxGeometry width="50" height="50" relative="1" as="geometry">
            <mxPoint x="526.7199999999999" y="501.1127272727273" as="sourcePoint" />
            <mxPoint x="613.41" y="529.77" as="targetPoint" />
          </mxGeometry>
        </mxCell>
        <mxCell id="k3QAAfPR_TVCjGvHiEy7-129" value="" style="edgeStyle=elbowEdgeStyle;elbow=horizontal;endArrow=classic;html=1;strokeColor=#000000;exitX=1.126;exitY=0.487;exitDx=0;exitDy=0;exitPerimeter=0;" parent="1" source="k3QAAfPR_TVCjGvHiEy7-86" edge="1">
          <mxGeometry width="50" height="50" relative="1" as="geometry">
            <mxPoint x="320" y="434.20000000000005" as="sourcePoint" />
            <mxPoint x="250" y="110" as="targetPoint" />
            <Array as="points">
              <mxPoint x="350" y="324.20000000000005" />
            </Array>
          </mxGeometry>
        </mxCell>
        <mxCell id="k3QAAfPR_TVCjGvHiEy7-130" value="&lt;font color=&quot;#67ab9f&quot;&gt;INPUT PRESENTATION&lt;/font&gt;" style="text;html=1;align=center;verticalAlign=middle;resizable=0;points=[];autosize=1;strokeColor=none;" parent="1" vertex="1">
          <mxGeometry x="85.34" y="100" width="150" height="20" as="geometry" />
        </mxCell>
        <mxCell id="k3QAAfPR_TVCjGvHiEy7-131" value="&lt;font color=&quot;#67ab9f&quot;&gt;INPUT PRESENTATION&lt;/font&gt;" style="text;html=1;align=center;verticalAlign=middle;resizable=0;points=[];autosize=1;strokeColor=none;" parent="1" vertex="1">
          <mxGeometry x="535" y="100" width="150" height="20" as="geometry" />
        </mxCell>
        <mxCell id="k3QAAfPR_TVCjGvHiEy7-132" value="&lt;font color=&quot;#67ab9f&quot;&gt;INPUT PRESENTATION&lt;/font&gt;" style="text;html=1;align=center;verticalAlign=middle;resizable=0;points=[];autosize=1;strokeColor=none;" parent="1" vertex="1">
          <mxGeometry x="540" y="291.59000000000003" width="150" height="20" as="geometry" />
        </mxCell>
        <mxCell id="k3QAAfPR_TVCjGvHiEy7-133" value="developing architecture with fixed weights" style="text;html=1;align=center;verticalAlign=middle;resizable=0;points=[];autosize=1;strokeColor=none;" parent="1" vertex="1">
          <mxGeometry x="495" y="590" width="240" height="20" as="geometry" />
        </mxCell>
        <mxCell id="k3QAAfPR_TVCjGvHiEy7-134" value="&lt;b&gt;&lt;font style=&quot;font-size: 14px&quot;&gt;activation functions&lt;/font&gt;&lt;/b&gt;" style="text;html=1;align=center;verticalAlign=middle;resizable=0;points=[];autosize=1;strokeColor=none;" parent="1" vertex="1">
          <mxGeometry x="325" y="750" width="150" height="20" as="geometry" />
        </mxCell>
        <mxCell id="k3QAAfPR_TVCjGvHiEy7-135" value="&lt;font style=&quot;font-size: 14px&quot;&gt;&lt;b&gt;Learning&lt;/b&gt;&lt;/font&gt;" style="text;html=1;align=center;verticalAlign=middle;resizable=0;points=[];autosize=1;strokeColor=none;" parent="1" vertex="1">
          <mxGeometry x="325" y="10" width="70" height="20" as="geometry" />
        </mxCell>
        <mxCell id="k3QAAfPR_TVCjGvHiEy7-136" value="ML" style="text;html=1;align=center;verticalAlign=middle;resizable=0;points=[];autosize=1;strokeColor=none;" parent="1" vertex="1">
          <mxGeometry x="10" y="790" width="30" height="20" as="geometry" />
        </mxCell>
        <mxCell id="k3QAAfPR_TVCjGvHiEy7-137" value="IN" style="text;html=1;align=center;verticalAlign=middle;resizable=0;points=[];autosize=1;strokeColor=none;" parent="1" vertex="1">
          <mxGeometry x="36.25" y="860.0027272727274" width="30" height="20" as="geometry" />
        </mxCell>
        <mxCell id="k3QAAfPR_TVCjGvHiEy7-138" value="" style="endArrow=none;html=1;strokeColor=#000000;entryX=0;entryY=0.5;entryDx=0;entryDy=0;" parent="1" target="k3QAAfPR_TVCjGvHiEy7-140" edge="1">
          <mxGeometry width="50" height="50" relative="1" as="geometry">
            <mxPoint x="78" y="870" as="sourcePoint" />
            <mxPoint x="130" y="871" as="targetPoint" />
          </mxGeometry>
        </mxCell>
        <mxCell id="k3QAAfPR_TVCjGvHiEy7-139" value="$$w_{1}$$" style="edgeLabel;html=1;align=center;verticalAlign=middle;resizable=0;points=[];" parent="k3QAAfPR_TVCjGvHiEy7-138" vertex="1" connectable="0">
          <mxGeometry x="-0.2163" y="4" relative="1" as="geometry">
            <mxPoint x="9" y="4" as="offset" />
          </mxGeometry>
        </mxCell>
        <mxCell id="k3QAAfPR_TVCjGvHiEy7-140" value="$$F(x)$$" style="ellipse;whiteSpace=wrap;html=1;aspect=fixed;" parent="1" vertex="1">
          <mxGeometry x="160" y="849.2099999999999" width="41.59" height="41.59" as="geometry" />
        </mxCell>
        <mxCell id="k3QAAfPR_TVCjGvHiEy7-141" value="" style="endArrow=none;html=1;strokeColor=#000000;entryX=0;entryY=0.5;entryDx=0;entryDy=0;" parent="1" edge="1">
          <mxGeometry width="50" height="50" relative="1" as="geometry">
            <mxPoint x="201.59" y="869.41" as="sourcePoint" />
            <mxPoint x="283.59000000000344" y="869.4150000000001" as="targetPoint" />
          </mxGeometry>
        </mxCell>
        <mxCell id="k3QAAfPR_TVCjGvHiEy7-142" value="OUT" style="text;html=1;align=center;verticalAlign=middle;resizable=0;points=[];autosize=1;strokeColor=none;" parent="1" vertex="1">
          <mxGeometry x="280" y="860.0027272727273" width="40" height="20" as="geometry" />
        </mxCell>
        <mxCell id="k3QAAfPR_TVCjGvHiEy7-143" value="" style="endArrow=none;html=1;entryX=0;entryY=0.5;entryDx=0;entryDy=0;exitX=1;exitY=0.472;exitDx=0;exitDy=0;exitPerimeter=0;" parent="1" source="k3QAAfPR_TVCjGvHiEy7-8" target="k3QAAfPR_TVCjGvHiEy7-11" edge="1">
          <mxGeometry x="20" y="141.59" width="50" height="50" as="geometry">
            <mxPoint x="50" y="226.59" as="sourcePoint" />
            <mxPoint x="140" y="234.31727272727275" as="targetPoint" />
          </mxGeometry>
        </mxCell>
        <mxCell id="k3QAAfPR_TVCjGvHiEy7-144" value="&lt;font style=&quot;font-size: 10px&quot;&gt;$$w_{3}$$&lt;/font&gt;" style="edgeLabel;html=1;align=center;verticalAlign=middle;resizable=0;points=[];" parent="k3QAAfPR_TVCjGvHiEy7-143" vertex="1" connectable="0">
          <mxGeometry relative="1" as="geometry">
            <mxPoint x="-4" y="10" as="offset" />
          </mxGeometry>
        </mxCell>
        <mxCell id="k3QAAfPR_TVCjGvHiEy7-145" value="" style="endArrow=none;html=1;exitX=1;exitY=0.5;exitDx=0;exitDy=0;entryX=0;entryY=0.5;entryDx=0;entryDy=0;" parent="1" source="k3QAAfPR_TVCjGvHiEy7-14" target="k3QAAfPR_TVCjGvHiEy7-30" edge="1">
          <mxGeometry x="20" y="141.59" width="50" height="50" as="geometry">
            <mxPoint x="219.99999999999557" y="234.31727272727275" as="sourcePoint" />
            <mxPoint x="250.0000000000041" y="214.99909090909088" as="targetPoint" />
          </mxGeometry>
        </mxCell>
        <mxCell id="k3QAAfPR_TVCjGvHiEy7-146" value="" style="endArrow=none;html=1;exitX=1;exitY=0.5;exitDx=0;exitDy=0;entryX=0;entryY=0.5;entryDx=0;entryDy=0;" parent="1" source="k3QAAfPR_TVCjGvHiEy7-19" target="k3QAAfPR_TVCjGvHiEy7-29" edge="1">
          <mxGeometry x="20" y="141.59" width="50" height="50" as="geometry">
            <mxPoint x="239.99999999999557" y="249.7718181818182" as="sourcePoint" />
            <mxPoint x="270.0000000000041" y="230.45363636363638" as="targetPoint" />
          </mxGeometry>
        </mxCell>
        <mxCell id="k3QAAfPR_TVCjGvHiEy7-147" value="$$w_{y}$$" style="edgeLabel;html=1;align=center;verticalAlign=middle;resizable=0;points=[];" parent="k3QAAfPR_TVCjGvHiEy7-146" vertex="1" connectable="0">
          <mxGeometry relative="1" as="geometry">
            <mxPoint x="-6" y="17" as="offset" />
          </mxGeometry>
        </mxCell>
        <mxCell id="k3QAAfPR_TVCjGvHiEy7-148" value="" style="endArrow=none;html=1;exitX=1;exitY=0.5;exitDx=0;exitDy=0;entryX=0;entryY=0.5;entryDx=0;entryDy=0;" parent="1" source="k3QAAfPR_TVCjGvHiEy7-19" target="k3QAAfPR_TVCjGvHiEy7-30" edge="1">
          <mxGeometry x="20" y="141.59" width="50" height="50" as="geometry">
            <mxPoint x="199.99999999999557" y="315.45363636363635" as="sourcePoint" />
            <mxPoint x="230.0000000000041" y="199.54454545454544" as="targetPoint" />
          </mxGeometry>
        </mxCell>
        <mxCell id="k3QAAfPR_TVCjGvHiEy7-149" value="" style="endArrow=none;html=1;exitX=1;exitY=0.5;exitDx=0;exitDy=0;entryX=0;entryY=0.5;entryDx=0;entryDy=0;" parent="1" source="k3QAAfPR_TVCjGvHiEy7-52" target="k3QAAfPR_TVCjGvHiEy7-68" edge="1">
          <mxGeometry x="18.75" y="396.59000000000003" width="50" height="50" as="geometry">
            <mxPoint x="218.74999999999557" y="489.3172727272728" as="sourcePoint" />
            <mxPoint x="248.7500000000041" y="469.9990909090909" as="targetPoint" />
          </mxGeometry>
        </mxCell>
        <mxCell id="k3QAAfPR_TVCjGvHiEy7-150" value="&lt;div&gt;$$OUT = F(\sum_{N} IN_{n} *&amp;nbsp; w_{n})&lt;span style=&quot;font-size: 11px ; background-color: rgb(255 , 255 , 255)&quot;&gt;$$&lt;/span&gt;&lt;/div&gt;&lt;div&gt;&lt;span style=&quot;font-size: 11px ; background-color: rgb(255 , 255 , 255)&quot;&gt;&lt;/span&gt;&lt;/div&gt;" style="text;html=1;align=center;verticalAlign=middle;resizable=0;points=[];autosize=1;strokeColor=none;" parent="1" vertex="1">
          <mxGeometry x="70.78999999999999" y="910" width="220" height="20" as="geometry" />
        </mxCell>
        <mxCell id="k3QAAfPR_TVCjGvHiEy7-151" value="IN" style="text;html=1;align=center;verticalAlign=middle;resizable=0;points=[];autosize=1;strokeColor=none;" parent="1" vertex="1">
          <mxGeometry x="472.95" y="845.3927272727274" width="30" height="20" as="geometry" />
        </mxCell>
        <mxCell id="k3QAAfPR_TVCjGvHiEy7-152" value="" style="endArrow=none;html=1;strokeColor=#000000;entryX=0;entryY=0.5;entryDx=0;entryDy=0;" parent="1" target="k3QAAfPR_TVCjGvHiEy7-153" edge="1">
          <mxGeometry width="50" height="50" relative="1" as="geometry">
            <mxPoint x="514.7" y="855.39" as="sourcePoint" />
            <mxPoint x="566.7" y="856.39" as="targetPoint" />
          </mxGeometry>
        </mxCell>
        <mxCell id="k3QAAfPR_TVCjGvHiEy7-153" value="&lt;font style=&quot;font-size: 11px&quot;&gt;$$\frac{1}{N}\sum_{n}$$&lt;/font&gt;" style="ellipse;whiteSpace=wrap;html=1;aspect=fixed;" parent="1" vertex="1">
          <mxGeometry x="610" y="830" width="50.79" height="50.79" as="geometry" />
        </mxCell>
        <mxCell id="k3QAAfPR_TVCjGvHiEy7-154" value="" style="endArrow=none;html=1;strokeColor=#000000;exitX=1;exitY=0.5;exitDx=0;exitDy=0;" parent="1" source="k3QAAfPR_TVCjGvHiEy7-153" target="k3QAAfPR_TVCjGvHiEy7-155" edge="1">
          <mxGeometry width="50" height="50" relative="1" as="geometry">
            <mxPoint x="649.82" y="854.39" as="sourcePoint" />
            <mxPoint x="720.2900000000035" y="854.8050000000002" as="targetPoint" />
          </mxGeometry>
        </mxCell>
        <mxCell id="k3QAAfPR_TVCjGvHiEy7-155" value="OUT" style="text;html=1;align=center;verticalAlign=middle;resizable=0;points=[];autosize=1;strokeColor=none;" parent="1" vertex="1">
          <mxGeometry x="730" y="845.3927272727273" width="40" height="20" as="geometry" />
        </mxCell>
        <mxCell id="k3QAAfPR_TVCjGvHiEy7-156" value="&lt;span style=&quot;font-size: 11px ; background-color: rgb(255 , 255 , 255)&quot;&gt;$$OUT = \frac{1}{N}\sum_{n}(1 - max(abs(IN - f_{tuning}), 0)$$&lt;br&gt;&lt;/span&gt;" style="text;html=1;align=center;verticalAlign=middle;resizable=0;points=[];autosize=1;strokeColor=none;" parent="1" vertex="1">
          <mxGeometry x="457.49999999999994" y="925.39" width="320" height="20" as="geometry" />
        </mxCell>
        <mxCell id="k3QAAfPR_TVCjGvHiEy7-157" value="" style="group;fillColor=#FFFFFF;" parent="1" vertex="1" connectable="0">
          <mxGeometry x="539.82" y="845.39" width="40" height="29.21" as="geometry" />
        </mxCell>
        <mxCell id="k3QAAfPR_TVCjGvHiEy7-158" value="" style="endArrow=none;html=1;strokeColor=#000000;" parent="k3QAAfPR_TVCjGvHiEy7-157" edge="1">
          <mxGeometry width="50" height="50" relative="1" as="geometry">
            <mxPoint y="23.368000000000002" as="sourcePoint" />
            <mxPoint x="40" y="23.368000000000002" as="targetPoint" />
          </mxGeometry>
        </mxCell>
        <mxCell id="k3QAAfPR_TVCjGvHiEy7-159" value="" style="endArrow=none;html=1;strokeColor=#000000;" parent="k3QAAfPR_TVCjGvHiEy7-157" edge="1">
          <mxGeometry width="50" height="50" relative="1" as="geometry">
            <mxPoint x="20.000000000000057" y="29.21" as="sourcePoint" />
            <mxPoint x="20" as="targetPoint" />
          </mxGeometry>
        </mxCell>
        <mxCell id="k3QAAfPR_TVCjGvHiEy7-160" value="" style="endArrow=none;html=1;strokeColor=#000000;" parent="k3QAAfPR_TVCjGvHiEy7-157" edge="1">
          <mxGeometry width="50" height="50" relative="1" as="geometry">
            <mxPoint x="10" y="23.368000000000002" as="sourcePoint" />
            <mxPoint x="20" y="5.8420000000000005" as="targetPoint" />
          </mxGeometry>
        </mxCell>
        <mxCell id="k3QAAfPR_TVCjGvHiEy7-161" value="" style="endArrow=none;html=1;strokeColor=#000000;" parent="k3QAAfPR_TVCjGvHiEy7-157" edge="1">
          <mxGeometry width="50" height="50" relative="1" as="geometry">
            <mxPoint x="30" y="23.368000000000002" as="sourcePoint" />
            <mxPoint x="20" y="5.8420000000000005" as="targetPoint" />
          </mxGeometry>
        </mxCell>
        <mxCell id="k3QAAfPR_TVCjGvHiEy7-162" value="$$f_{tuning}$$" style="text;html=1;align=center;verticalAlign=middle;resizable=0;points=[];autosize=1;strokeColor=none;" parent="1" vertex="1">
          <mxGeometry x="512.82" y="874.6" width="90" height="20" as="geometry" />
        </mxCell>
        <mxCell id="k3QAAfPR_TVCjGvHiEy7-163" value="NG" style="text;html=1;align=center;verticalAlign=middle;resizable=0;points=[];autosize=1;strokeColor=none;" parent="1" vertex="1">
          <mxGeometry x="475" y="790" width="30" height="20" as="geometry" />
        </mxCell>
        <mxCell id="k3QAAfPR_TVCjGvHiEy7-110" value="" style="endArrow=none;html=1;strokeColor=#0000CC;entryX=0.019;entryY=0.562;entryDx=0;entryDy=0;exitX=1;exitY=0.5;exitDx=0;exitDy=0;entryPerimeter=0;" parent="1" source="k3QAAfPR_TVCjGvHiEy7-108" target="k3QAAfPR_TVCjGvHiEy7-98" edge="1">
          <mxGeometry width="50" height="50" relative="1" as="geometry">
            <mxPoint x="523" y="251.18" as="sourcePoint" />
            <mxPoint x="609.9999999999993" y="251.58999999999997" as="targetPoint" />
          </mxGeometry>
        </mxCell>
        <mxCell id="k3QAAfPR_TVCjGvHiEy7-111" value="&lt;font color=&quot;#0000cc&quot;&gt;w&lt;sub&gt;1&lt;/sub&gt; = error&lt;/font&gt;" style="edgeLabel;html=1;align=center;verticalAlign=middle;resizable=0;points=[];" parent="k3QAAfPR_TVCjGvHiEy7-110" vertex="1" connectable="0">
          <mxGeometry x="-0.0907" y="4" relative="1" as="geometry">
            <mxPoint x="8" y="4" as="offset" />
          </mxGeometry>
        </mxCell>
      </root>
    </mxGraphModel>
  </diagram>
</mxfile>
